<?xml version="1.0" encoding="UTF-8" standalone="no"?>
<svg
   xmlns:dc="http://purl.org/dc/elements/1.1/"
   xmlns:cc="http://creativecommons.org/ns#"
   xmlns:rdf="http://www.w3.org/1999/02/22-rdf-syntax-ns#"
   xmlns:svg="http://www.w3.org/2000/svg"
   xmlns="http://www.w3.org/2000/svg"
   xmlns:sodipodi="http://sodipodi.sourceforge.net/DTD/sodipodi-0.dtd"
   xmlns:inkscape="http://www.inkscape.org/namespaces/inkscape"
   id="Layer_1"
   data-name="Layer 1"
   viewBox="0 0 150 150"
   version="1.1"
   sodipodi:docname="icon.svg"
   inkscape:version="0.92.3 (2405546, 2018-03-11)">
  <defs>
    <style>
      .cls-1 {
        fill: #2c3e50;
      }
      .cls-2 {
        fill: #0db7ed;
      }
      .cls-3 {
        fill: #e6e6e6;
      }
      .cls-4 {
        fill: #f7941e;
      }
    </style>
  </defs>
  <title>Docker Manager</title>
  <rect class="cls-1" width="150" height="150" rx="20" ry="20"/>
  <g transform="translate(15,20) scale(0.8)">
    <path class="cls-2" d="M124,80.31c-.18-.09-1.53-.63-4.45-.63a33.58,33.58,0,0,0-5.39.54,14.18,14.18,0,0,0-5.28-3.16l-1.8-.81-.72,1.8a18.9,18.9,0,0,0-.81,7.55,9.93,9.93,0,0,0,1.71,4.67l.81,1.08h0a29.31,29.31,0,0,1-8.9,1c-6.56,0-12.13-1.53-15.38-4.31a37.47,37.47,0,0,1-9.53-13.58,60.63,60.63,0,0,1-3-12.86c-.36-3.79-.45-7.55-.27-11.24.09-3,.36-6.2.72-9.44H25.8a18,18,0,0,0-5.84.9c-1.35.54-4.4,2.16-5.84,7.82l-.63,2.34c-1.8,6.92-2.25,12.77-1.53,19.24S14.38,82.2,16.36,87c2,5.12,4.85,9.62,8.54,13.58s8.1,7.19,13.13,9.53,10.6,3.79,17.07,4.49a89.93,89.93,0,0,0,11.34.72,80.86,80.86,0,0,0,18.27-2,62.19,62.19,0,0,0,17-6.74A57.4,57.4,0,0,0,115,94.15c.45-.54.9-1.17,1.35-1.71h1.17c7.19,0,11.69-2.88,14.12-5.39a16.33,16.33,0,0,0,3.34-5l.45-1.17Z" transform="translate(0 0)"/>
    <path class="cls-3" d="M28.86,76.43H38.39V67.53H28.86Zm0,0" transform="translate(0 0)"/>
    <path class="cls-3" d="M42.18,76.43H51.7V67.53H42.18Zm0,0" transform="translate(0 0)"/>
    <path class="cls-3" d="M56.55,76.43h9.53V67.53H56.55Zm0,0" transform="translate(0 0)"/>
    <path class="cls-3" d="M69.87,76.43H79.4V67.53H69.87Zm0,0" transform="translate(0 0)"/>
    <path class="cls-3" d="M42.18,63.74H51.7V54.84H42.18Zm0,0" transform="translate(0 0)"/>
    <path class="cls-3" d="M56.55,63.74h9.53V54.84H56.55Zm0,0" transform="translate(0 0)"/>
    <path class="cls-3" d="M69.87,63.74H79.4V54.84H69.87Zm0,0" transform="translate(0 0)"/>
    <path class="cls-3" d="M69.87,51.05H79.4V42.16H69.87Zm0,0" transform="translate(0 0)"/>
    <path class="cls-3" d="M56.55,51.05h9.53V42.16H56.55Zm0,0" transform="translate(0 0)"/>
    <path class="cls-4" d="M124.59,67.8c-6.29-4.22-19.42-5.93-29.59-3.74-1.45-10.15-9.56-18.58-19.71-23.36l-3.74-1.45-2.49,2.8c-3.12,3.74-5.3,8.73-5.93,13.5a27.26,27.26,0,0,0,1.87,16.58c-2.8,1.56-8.42,3.74-15.65,3.74H9.6l-.31,3.43c-.93,11.83,1.24,23.67,6.86,33.54l2.18,3.74.31.31a62.63,62.63,0,0,0,55.08,28c37.38-1.56,66.13-23.67,79.32-59.93,2.18.31,10.14,0,13.77-6.54.31-.31.62-.93.93-1.24Z" transform="translate(0 0)"/>
    <path class="cls-3" d="M26.37,72H35.9V63.11H26.37Z" transform="translate(0 0)"/>
    <path class="cls-3" d="M39.69,72h9.53V63.11H39.69Z" transform="translate(0 0)"/>
    <path class="cls-3" d="M54.07,72H63.6V63.11H54.07Z" transform="translate(0 0)"/>
    <path class="cls-3" d="M67.38,72h9.53V63.11H67.38Z" transform="translate(0 0)"/>
    <path class="cls-3" d="M39.69,59.31h9.53V50.42H39.69Z" transform="translate(0 0)"/>
    <path class="cls-3" d="M54.07,59.31H63.6V50.42H54.07Z" transform="translate(0 0)"/>
    <path class="cls-3" d="M67.38,59.31h9.53V50.42H67.38Z" transform="translate(0 0)"/>
    <path class="cls-3" d="M67.38,46.63h9.53V37.74H67.38Z" transform="translate(0 0)"/>
    <path class="cls-3" d="M54.07,46.63H63.6V37.74H54.07Z" transform="translate(0 0)"/>
    <path class="cls-2" d="M105.91,77.51a4.51,4.51,0,1,1-4.51-4.51,4.51,4.51,0,0,1,4.51,4.51" transform="translate(0 0)"/>
  </g>
</svg>