<?xml version="1.0" encoding="UTF-8" standalone="no"?>
<svg xmlns="http://www.w3.org/2000/svg" xmlns:xlink="http://www.w3.org/1999/xlink" width="128" height="128" viewBox="0 0 128 128">
  <defs>
    <linearGradient id="grad1" x1="0%" y1="0%" x2="100%" y2="100%">
      <stop offset="0%" style="stop-color:#13BEFA;stop-opacity:1" />
      <stop offset="100%" style="stop-color:#0069AA;stop-opacity:1" />
    </linearGradient>
  </defs>
  <rect x="0" y="0" width="128" height="128" rx="12" ry="12" fill="url(#grad1)"/>
  <g transform="translate(14, 14) scale(0.78)">
    <!-- Portainer-inspired container/cube icon -->
    <path d="M30,85 L30,35 L64,15 L98,35 L98,85 L64,105 L30,85 Z" fill="none" stroke="white" stroke-width="4" />
    <path d="M30,35 L64,55 L98,35" fill="none" stroke="white" stroke-width="4" />
    <path d="M64,55 L64,105" fill="none" stroke="white" stroke-width="4" />
    
    <!-- Additional container elements -->
    <rect x="45" y="60" width="10" height="10" fill="white" rx="2" ry="2" />
    <rect x="45" y="75" width="10" height="10" fill="white" rx="2" ry="2" />
    <rect x="60" y="60" width="10" height="10" fill="white" rx="2" ry="2" />
    <rect x="60" y="75" width="10" height="10" fill="white" rx="2" ry="2" />
    <rect x="75" y="60" width="10" height="10" fill="white" rx="2" ry="2" />
    <rect x="75" y="75" width="10" height="10" fill="white" rx="2" ry="2" />
  </g>
</svg>