<?xml version="1.0" encoding="UTF-8" standalone="no"?>
<svg xmlns="http://www.w3.org/2000/svg" width="70" height="70" viewBox="0 0 70 70">
  <rect width="70" height="70" rx="10" fill="#232F3E"/>
  <g transform="translate(10, 10) scale(0.05, 0.05)">
    <path d="M318.4 414.2l-79.9-24.4v-50.6l79.9-24.7v99.7z" fill="#F68536"/>
    <path d="M318.4 414.2l80.1-24.4v-50.6l-80.1-24.7v99.7z" fill="#F68536"/>
    <path d="M221.2 337.4l79.6-16.1 82.2 16.1-82.2 16.2-79.6-16.2z" fill="#F68536"/>
    <path d="M318.4 257.8l-79.9-24.4v-50.6l79.9-24.7v99.7z" fill="#F68536"/>
    <path d="M318.4 257.8l80.1-24.4v-50.6l-80.1-24.7v99.7z" fill="#F68536"/>
    <path d="M221.2 181l79.6-16.1 82.2 16.1-82.2 16.2-79.6-16.2z" fill="#F68536"/>
    <path d="M519.2 416.2h41.3c1.5 0 2.7-1.2 2.7-2.7v-11.3c0-1.5-1.2-2.7-2.7-2.7h-40.8v-10.6h40.8c1.5 0 2.7-1.2 2.7-2.7v-11.3c0-1.5-1.2-2.7-2.7-2.7h-40.8v-10.6h40.8c1.5 0 2.7-1.2 2.7-2.7v-11.3c0-1.5-1.2-2.7-2.7-2.7h-41.3c-1.5 0-2.7 1.2-2.7 2.7v65.9c0 1.5 1.2 2.7 2.7 2.7zm237.5-57.9L800 413.9c1.3 1.3 1.2 3.4-.1 4.7-.6.6-1.5.9-2.3.9h-16.5c-1 0-2-.4-2.7-1.1l-44.3-56.7v55.1c0 1.5-1.2 2.7-2.7 2.7H719c-1.5 0-2.7-1.2-2.7-2.7v-65.9c0-1.5 1.2-2.7 2.7-2.7h17.6c1 0 2 .4 2.7 1.1l43.2 55.3v-53.7c0-1.5 1.2-2.7 2.7-2.7h12.4c1.5 0 2.7 1.2 2.7 2.7v65.9c0 .7-.3 1.4-.7 1.9h-.1c-.4.4-.8.7-1.3.8h.1l.3-.1zm-348.2 58.2h-15.6c-1.6 0-2.8-1.3-2.7-2.9l2.8-65.9c.1-1.4 1.3-2.6 2.7-2.6h16.2c1.5 0 2.8 1.2 2.7 2.7l-3.4 65.9c-.1 1.5-1.3 2.8-2.7 2.8zm-60.5.3h-16.6c-1.5 0-2.7-1.2-2.7-2.7v-65.9c0-1.5 1.2-2.7 2.7-2.7h16.6c1.5 0 2.7 1.2 2.7 2.7v65.9c0 1.5-1.2 2.7-2.7 2.7zm-43.8 0h-41.3c-1.5 0-2.7-1.2-2.7-2.7v-11.3c0-1.5 1.2-2.7 2.7-2.7h40.8v-10.6h-40.8c-1.5 0-2.7-1.2-2.7-2.7v-11.3c0-1.5 1.2-2.7 2.7-2.7h40.8v-10.6h-40.8c-1.5 0-2.7-1.2-2.7-2.7v-11.3c0-1.5 1.2-2.7 2.7-2.7h41.3c1.5 0 2.7 1.2 2.7 2.7v65.9c0 1.5-1.2 2.7-2.7 2.7zm142.5 0h-45c-1.5 0-2.7-1.2-2.7-2.7v-65.9c0-1.5 1.2-2.7 2.7-2.7h44.3c27.9 0 44.9 20.6 44.9 37.3 0 14.8-13.6 34-44.2 34zm-.3-57h-24.7v40.1h24.7c13.6 0 23.2-10.4 23.2-21 0-12.7-9.5-19.1-23.2-19.1zm157.2 57h-41.5c-1.5 0-2.7-1.2-2.7-2.7v-65.9c0-1.5 1.2-2.7 2.7-2.7h41.1c15.7 0 29.7 9.7 29.7 22.5 0 6.3-4.2 13.3-10.3 16.2 8.6 2.4 16.1 10.5 16.1 19.7-.1 11.1-15.1 12.9-35.1 12.9zm-7.8-57h-13.7v16.9h13.7c4.1 0 9.6-2.3 9.6-8.2 0-5.4-3.8-8.7-9.6-8.7zm7.5 31.2H610.4v11.8h19.9c6.1 0 10.7-2.9 10.7-6.2 0-3.7-5.3-5.6-10.7-5.6z" fill="#FFFFFF"/>
  </g>
</svg>